<svg xmlns="http://www.w3.org/2000/svg" width="40" height="40" viewBox="0 0 40 40" fill="none">
  <path d="M13.1033 20V26.1305" stroke="#0F172B" stroke-width="2.86" stroke-linecap="round" stroke-linejoin="round"/>
  <path d="M16.1687 23.0654H10.0382" stroke="#0F172B" stroke-width="2.86" stroke-linecap="round" stroke-linejoin="round"/>
  <path d="M4.76296 20.511L3.66947 30.3525C3.27086 33.94 6.07909 37.0775 9.68868 37.0775C11.9826 37.0775 14.0797 35.7813 15.1055 33.7296L16.059 31.8227H23.941L24.8945 33.7296C25.9204 35.7813 28.0175 37.0775 30.3114 37.0775C33.9209 37.0775 36.7292 33.94 36.3305 30.3525L35.237 20.511C34.7892 16.4805 31.3824 13.4313 27.3272 13.4313H12.6728C8.61759 13.4313 5.21079 16.4805 4.76296 20.511Z" stroke="#0F172B" stroke-width="2.86" stroke-linecap="round" stroke-linejoin="round"/>
  <path d="M20 13.4316V10.8298C20 9.36465 21.1877 8.17694 22.6529 8.17694H26.5429C28.0079 8.17694 29.1956 6.9892 29.1956 5.52408V2.92224" stroke="#0F172B" stroke-width="2.86" stroke-linecap="round" stroke-linejoin="round"/>
  <path d="M29.1956 21.3137C28.833 21.3137 28.5391 21.0196 28.5391 20.6568C28.5391 20.2941 28.833 20 29.1956 20" stroke="#0F172B" stroke-width="2.86" stroke-linecap="round" stroke-linejoin="round"/>
  <path d="M29.1957 21.3137C29.5586 21.3137 29.8525 21.0196 29.8525 20.6568C29.8525 20.2941 29.5586 20 29.1957 20" stroke="#0F172B" stroke-width="2.86" stroke-linecap="round" stroke-linejoin="round"/>
  <path d="M24.5979 24.5979C24.5979 24.2352 24.892 23.9411 25.2547 23.9411C25.6175 23.9411 25.9116 24.2352 25.9116 24.5979" stroke="#0F172B" stroke-width="2.86" stroke-linecap="round" stroke-linejoin="round"/>
  <path d="M24.5981 24.5977C24.5981 24.9605 24.8922 25.2545 25.255 25.2545C25.6177 25.2545 25.9118 24.9605 25.9118 24.5977" stroke="#0F172B" stroke-width="2.86" stroke-linecap="round" stroke-linejoin="round"/>
</svg>