<svg xmlns="http://www.w3.org/2000/svg" width="41" height="40" viewBox="0 0 41 40" fill="none">
  <g clip-path="url(#clip0_63_113)">
    <path d="M13 11.6667H8.33331C8.0681 11.6667 7.81374 11.772 7.62621 11.9596C7.43867 12.1471 7.33331 12.4015 7.33331 12.6667V27.3334C7.33331 27.4647 7.35918 27.5947 7.40943 27.716C7.45969 27.8374 7.53335 27.9476 7.62621 28.0405C7.71906 28.1333 7.8293 28.207 7.95063 28.2572C8.07196 28.3075 8.20199 28.3334 8.33331 28.3334H13C13.1313 28.3334 13.2613 28.3075 13.3827 28.2572C13.504 28.207 13.6142 28.1333 13.7071 28.0405C13.7999 27.9476 13.8736 27.8374 13.9239 27.716C13.9741 27.5947 14 27.4647 14 27.3334V12.6667C14 12.4015 13.8946 12.1471 13.7071 11.9596C13.5195 11.772 13.2652 11.6667 13 11.6667ZM33 11.6667H28.3333C28.0681 11.6667 27.8137 11.772 27.6262 11.9596C27.4387 12.1471 27.3333 12.4015 27.3333 12.6667V27.3334C27.3333 27.4647 27.3592 27.5947 27.4094 27.716C27.4597 27.8374 27.5333 27.9476 27.6262 28.0405C27.7191 28.1333 27.8293 28.207 27.9506 28.2572C28.072 28.3075 28.202 28.3334 28.3333 28.3334H33C33.1313 28.3334 33.2613 28.3075 33.3827 28.2572C33.504 28.207 33.6142 28.1333 33.7071 28.0405C33.7999 27.9476 33.8736 27.8374 33.9239 27.716C33.9741 27.5947 34 27.4647 34 27.3334V12.6667C34 12.4015 33.8946 12.1471 33.7071 11.9596C33.5196 11.772 33.2652 11.6667 33 11.6667Z" stroke="#0F172B" stroke-width="2.5" stroke-linecap="round" stroke-linejoin="round"/>
    <path d="M14 20H27.3333M2.33331 24V16C2.33331 15.7348 2.43867 15.4804 2.62621 15.2929C2.81374 15.1054 3.0681 15 3.33331 15H6.33331C6.59853 15 6.85288 15.1054 7.04042 15.2929C7.22796 15.4804 7.33331 15.7348 7.33331 16V24C7.33331 24.2652 7.22796 24.5196 7.04042 24.7071C6.85288 24.8946 6.59853 25 6.33331 25H3.33331C3.0681 25 2.81374 24.8946 2.62621 24.7071C2.43867 24.5196 2.33331 24.2652 2.33331 24ZM39 24V16C39 15.7348 38.8946 15.4804 38.7071 15.2929C38.5196 15.1054 38.2652 15 38 15H35C34.7348 15 34.4804 15.1054 34.2929 15.2929C34.1053 15.4804 34 15.7348 34 16V24C34 24.2652 34.1053 24.5196 34.2929 24.7071C34.4804 24.8946 34.7348 25 35 25H38C38.2652 25 38.5196 24.8946 38.7071 24.7071C38.8946 24.5196 39 24.2652 39 24Z" stroke="#0F172B" stroke-width="2.5" stroke-linecap="round" stroke-linejoin="round"/>
  </g>
  <defs>
    <clipPath id="clip0_63_113">
      <rect width="40" height="40" fill="white" transform="translate(0.666626)"/>
    </clipPath>
  </defs>
</svg>