<svg xmlns="http://www.w3.org/2000/svg" width="41" height="40" viewBox="0 0 41 40" fill="none">
  <path d="M37.577 37.2436H36.2506C34.8435 37.2436 33.494 36.6846 32.4989 35.6895C31.5038 34.6945 30.9448 33.3449 30.9448 31.9379C30.9448 33.3449 30.3859 34.6945 29.3908 35.6895C28.3957 36.6846 27.0463 37.2436 25.6391 37.2436C24.232 37.2436 22.8824 36.6846 21.8874 35.6895C20.8924 34.6945 20.3334 33.3449 20.3334 31.9379C20.3334 33.3449 19.7744 34.6945 18.7794 35.6895C17.7844 36.6846 16.4349 37.2436 15.0277 37.2436C13.6205 37.2436 12.271 36.6846 11.276 35.6895C10.281 34.6945 9.72199 33.3449 9.72199 31.9379C9.72199 33.3449 9.163 34.6945 8.16797 35.6895C7.17296 36.6846 5.82343 37.2436 4.41627 37.2436H3.08984" stroke="#0F172B" stroke-width="2.86" stroke-linecap="round" stroke-linejoin="round"/>
  <path d="M8.39551 8.06212C8.39551 6.65497 8.95449 5.30543 9.94952 4.31043C10.9445 3.3154 12.2941 2.75641 13.7012 2.75641C15.1084 2.75641 16.4579 3.3154 17.4529 4.31043C18.448 5.30543 19.0069 6.65497 19.0069 8.06212V26.6321" stroke="#0F172B" stroke-width="2.86" stroke-linecap="round" stroke-linejoin="round"/>
  <path d="M26.9656 2.75641C28.3727 2.75641 29.7222 3.3154 30.7172 4.31043C31.7123 5.30543 32.2713 6.65497 32.2713 8.06212V26.6321" stroke="#0F172B" stroke-width="2.86" stroke-linecap="round" stroke-linejoin="round"/>
  <path d="M19.007 13.3679H32.2712" stroke="#0F172B" stroke-width="2.86" stroke-linecap="round" stroke-linejoin="round"/>
  <path d="M19.007 21.3264H32.2712" stroke="#0F172B" stroke-width="2.86" stroke-linecap="round" stroke-linejoin="round"/>
</svg>