<svg width="40" height="40" viewBox="0 0 40 40" fill="none" xmlns="http://www.w3.org/2000/svg">
<path d="M10.6632 29.3718C12.3355 29.3718 13.6911 28.0162 13.6911 26.344C13.6911 24.6717 12.3355 23.3161 10.6632 23.3161C8.99095 23.3161 7.63531 24.6717 7.63531 26.344C7.63531 28.0162 8.99095 29.3718 10.6632 29.3718Z" stroke="#0F172B" stroke-width="2.86" stroke-linecap="round" stroke-linejoin="round"/>
<path d="M5.21045 37.1871C5.22008 36.2639 5.46356 35.3582 5.9181 34.5546C6.87597 32.8613 8.71562 31.7861 10.6606 31.7819C12.6057 31.7861 14.4453 32.8613 15.4032 34.5546C15.8577 35.3582 16.1012 36.2639 16.1108 37.1871" stroke="#0F172B" stroke-width="2.86" stroke-linecap="round" stroke-linejoin="round"/>
<path d="M29.3524 29.3718C31.0247 29.3718 32.3803 28.0162 32.3803 26.344C32.3803 24.6717 31.0247 23.3161 29.3524 23.3161C27.6801 23.3161 26.3245 24.6717 26.3245 26.344C26.3245 28.0162 27.6801 29.3718 29.3524 29.3718Z" stroke="#0F172B" stroke-width="2.86" stroke-linecap="round" stroke-linejoin="round"/>
<path d="M23.8996 37.1871C23.9093 36.2639 24.1527 35.3582 24.6072 34.5546C25.5651 32.8613 27.4048 31.7861 29.3497 31.7819C31.2948 31.7861 33.1345 32.8613 34.0922 34.5546C34.5469 35.3582 34.7905 36.2639 34.8 37.1871" stroke="#0F172B" stroke-width="2.86" stroke-linecap="round" stroke-linejoin="round"/>
<path d="M19.9973 12.1663C21.5583 12.1663 22.8237 10.9009 22.8237 9.33993C22.8237 7.77896 21.5583 6.51355 19.9973 6.51355C18.4364 6.51355 17.171 7.77896 17.171 9.33993C17.171 10.9009 18.4364 12.1663 19.9973 12.1663Z" stroke="#0F172B" stroke-width="2.86" stroke-linecap="round" stroke-linejoin="round"/>
<path d="M14.715 19.2526C14.7244 18.3575 14.9604 17.4794 15.4012 16.7002C16.3299 15.0584 18.1137 14.0157 19.9995 14.0117C21.8854 14.0157 23.6692 15.0584 24.5979 16.7002C25.0386 17.4794 25.2747 18.3575 25.2841 19.2526" stroke="#0F172B" stroke-width="2.86" stroke-linecap="round" stroke-linejoin="round"/>
<path d="M32.6854 2.87561H7.31466C6.26235 2.87561 5.4093 3.72867 5.4093 4.78097V17.3472C5.4093 18.3995 6.26235 19.2525 7.31466 19.2525H32.6854C33.7376 19.2525 34.5907 18.3995 34.5907 17.3472V4.78097C34.5907 3.72867 33.7376 2.87561 32.6854 2.87561Z" stroke="#0F172B" stroke-width="2.86" stroke-linecap="round" stroke-linejoin="round"/>
</svg>
