<svg width="40" height="40" viewBox="0 0 40 40" fill="none" xmlns="http://www.w3.org/2000/svg">
<path d="M20.938 36.9348C20.3285 37.1698 19.6532 37.1698 19.0437 36.9348C14.2875 35.1086 10.1971 31.883 7.31286 27.6833C4.42857 23.4837 2.88611 18.508 2.8892 13.4133V5.52025C2.8892 4.82247 3.16639 4.15323 3.6598 3.65983C4.15323 3.16642 4.82244 2.88922 5.52022 2.88922H34.4615C35.1592 2.88922 35.8285 3.16642 36.322 3.65983C36.8154 4.15323 37.0926 4.82247 37.0926 5.52025V13.4133C37.0955 18.508 35.5532 23.4837 32.669 27.6833C29.7845 31.883 25.6942 35.1086 20.938 36.9348Z" stroke="#0F172B" stroke-width="2.86" stroke-linecap="round" stroke-linejoin="round"/>
<path d="M27.9586 12.0414L17.3471 23.9793L12.0414 20" stroke="#0F172B" stroke-width="2.86" stroke-linecap="round" stroke-linejoin="round"/>
</svg>
